<!-- <?xml version="1.0" standalone="no"?>
<!DOCTYPE svg PUBLIC "-//W3C//DTD SVG 20010904//EN"
 "http://www.w3.org/TR/2001/REC-SVG-20010904/DTD/svg10.dtd"> -->
<svg version="1.0" xmlns="http://www.w3.org/2000/svg"
 width="150.000000pt" height="150.000000pt" viewBox="0 0 100.000000 100.000000"
 preserveAspectRatio="xMidYMid meet">

<g transform="translate(0.000000,100.000000) scale(0.100000,-0.100000)"
fill="red" stroke="none">
<path d="M495 925 c-173 -129 -263 -259 -273 -394 -5 -81 7 -139 49 -232 30
-64 32 -67 72 -72 23 -3 65 -16 93 -27 l52 -22 40 26 c37 23 41 30 48 82 11
88 -2 200 -33 284 -35 98 -38 231 -5 330 12 35 20 65 19 67 -2 1 -30 -18 -62
-42z" fill="#60A917"/>
<path d="M597 855 l-49 -50 4 -90 c2 -49 9 -98 14 -108 9 -16 16 -9 53 52 l42
71 -8 87 -8 88 -48 -50z"/>
<path d="M760 872 c0 -21 -88 -201 -130 -268 -37 -58 -38 -64 -28 -100 13 -45
16 -182 5 -236 l-8 -38 64 0 63 0 23 48 c57 114 72 261 47 451 -9 68 -21 131
-26 140 -6 11 -9 12 -10 3z" fill="#1BA1E2"/>
<path d="M546 177 c-43 -20 -47 -24 -33 -36 13 -10 23 -10 53 -1 84 28 188
-11 240 -90 26 -38 29 -40 80 -40 62 0 63 5 7 82 -72 100 -231 139 -347 85z" fill="#008A00"/>
<path d="M223 176 c-53 -17 -100 -47 -137 -85 l-30 -31 71 0 c67 0 71 1 110
38 56 53 109 68 177 48 29 -9 70 -28 92 -44 61 -44 73 -47 29 -9 -91 81 -217
114 -312 83z" fill="#008A00"/>
<path d="M909 127 c19 -20 37 -35 39 -33 7 8 -7 24 -41 47 l-32 22 34 -36z" fill="#008A00"/>
<path d="M425 80 c-10 -11 -16 -22 -13 -25 3 -3 13 4 23 15 10 11 16 22 13 25
-3 3 -13 -4 -23 -15z" fill="#008A00"/>
</g>
</svg>
